# xmcd CD database file
#
# Track frame offsets:
#	150
#	17942
#	38346
#	46091
#	62102
#	78493
#	96475
#	111354
#	123966
#	139005
#	158674
#	183846
#
# Disc length: 2680 seconds
#
# Revision: 0
# Processed by: cddbd v1.5.2PL0 Copyright (c) Steve Scherf et al.
# Submitted via: CDex 1.51
#
DISCID=950a760c
DTITLE=Catherine Lara - Au Dela Des Murs
DYEAR=2009
DGENRE=New Age
TTITLE0=Exode
TTITLE1=Tant Que Nous Danserons Ensemble
TTITLE2=Une Valse Pour Lilah
TTITLE3=Hopes For Glory
TTITLE4=Kavode
TTITLE5=Memoire De Maayane
TTITLE6=Insomnia
TTITLE7=Gipsy Soul
TTITLE8=Armen, Noam Et Salih
TTITLE9=Les Etoiles D'Istanbul
TTITLE10=Behind The Wall
TTITLE11=Remember
EXTD=YEAR: 2009
EXTT0=
EXTT1=
EXTT2=
EXTT3=
EXTT4=
EXTT5=
EXTT6=
EXTT7=
EXTT8=
EXTT9=
EXTT10=
EXTT11=
PLAYORDER=
